<?xml version="1.0" standalone="no"?>
<!DOCTYPE svg PUBLIC "-//W3C//DTD SVG 20010904//EN"
 "http://www.w3.org/TR/2001/REC-SVG-20010904/DTD/svg10.dtd">
<svg version="1.0" xmlns="http://www.w3.org/2000/svg"
 width="640.000000pt" height="640.000000pt" viewBox="0 0 640.000000 640.000000"
 preserveAspectRatio="xMidYMid meet">
<metadata>
Created by potrace 1.14, written by Peter Selinger 2001-2017
</metadata>
<g transform="translate(0.000000,640.000000) scale(0.100000,-0.100000)"
fill="#000000" stroke="none">
<path d="M3018 6175 c-1 -2 -30 -6 -63 -9 -119 -10 -206 -27 -418 -81 -81 -20
-315 -114 -412 -166 -111 -58 -286 -170 -359 -229 -188 -152 -333 -302 -464
-484 -41 -55 -83 -117 -94 -136 -10 -19 -32 -57 -49 -85 -93 -158 -205 -446
-235 -600 -2 -11 -10 -51 -19 -90 -32 -152 -39 -235 -40 -450 0 -191 7 -292
31 -415 3 -14 7 -39 9 -57 3 -17 10 -44 15 -59 6 -15 9 -29 6 -31 -2 -3 2 -19
9 -37 8 -18 16 -44 19 -57 10 -48 44 -146 85 -246 183 -445 511 -831 928
-1092 79 -48 292 -161 306 -161 4 0 26 -9 50 -19 97 -45 356 -118 482 -138 17
-2 41 -6 55 -9 75 -13 184 -19 345 -19 215 1 298 8 450 40 39 9 79 17 90 19
11 2 38 9 60 15 22 6 42 11 45 11 14 0 235 82 300 111 158 70 369 196 484 289
124 99 249 219 330 314 22 27 46 54 51 60 65 71 243 342 243 370 0 5 5 12 10
15 9 6 35 58 84 171 21 48 86 228 93 258 2 9 14 53 25 96 12 44 23 91 25 105
2 14 7 40 10 56 24 136 29 208 29 410 0 242 -10 328 -58 543 -20 88 -76 263
-107 329 -10 24 -19 46 -19 50 0 11 -111 226 -132 256 -11 15 -16 27 -11 27 4
0 3 4 -2 8 -6 4 -35 43 -64 87 -157 234 -383 464 -606 616 -44 30 -81 57 -83
62 -2 4 -8 7 -14 7 -5 0 -22 8 -36 19 -29 20 -265 141 -275 141 -4 0 -26 9
-50 19 -50 23 -202 74 -272 91 -27 6 -57 14 -65 17 -8 4 -24 8 -35 9 -18 3
-59 11 -105 20 -8 2 -37 6 -64 9 -27 4 -58 9 -70 12 -24 5 -442 13 -448 8z
m-941 -776 c48 -16 95 -33 103 -36 8 -4 17 -7 20 -8 77 -23 218 -73 257 -92
40 -19 75 -85 67 -128 -5 -28 -105 -236 -126 -262 -6 -7 -7 -13 -3 -13 4 0 2
-6 -4 -13 -6 -8 -24 -39 -39 -70 l-28 -56 -112 55 c-62 30 -112 60 -112 67 0
7 11 33 25 59 14 26 25 49 25 52 0 14 -82 -45 -131 -95 -57 -57 -124 -174
-135 -234 -3 -16 -9 -46 -13 -65 -9 -42 -2 -185 9 -185 1 0 3 -11 6 -24 19
-102 133 -253 236 -311 l37 -21 20 46 c40 91 197 308 235 324 4 2 16 12 25 23
27 33 142 114 222 157 76 41 212 92 279 105 19 3 46 9 60 12 41 9 277 12 323
4 23 -5 56 -10 73 -13 51 -8 178 -50 186 -61 4 -6 8 -7 8 -3 0 15 163 -76 240
-134 41 -31 94 -76 117 -100 70 -73 98 -104 108 -121 6 -8 26 -40 45 -69 75
-115 133 -257 159 -389 10 -46 24 -202 23 -235 -7 -142 -28 -259 -66 -357 -67
-178 -132 -282 -258 -414 l-68 -70 230 0 c208 -1 228 1 217 15 -6 9 -16 19
-22 23 -8 6 167 188 180 188 3 0 24 -21 49 -47 24 -27 86 -90 136 -142 107
-109 121 -136 107 -195 -9 -40 -40 -74 -259 -284 l-37 -35 -90 94 c-77 81 -88
96 -76 109 12 13 -117 15 -1173 14 -653 -1 -1194 0 -1202 2 -13 3 -16 25 -15
126 0 87 3 124 12 128 7 3 125 5 263 5 137 -1 250 1 250 3 0 2 -11 13 -25 24
-14 11 -25 24 -25 30 0 11 164 178 175 178 4 0 30 -20 58 -45 29 -25 55 -45
59 -45 4 0 26 -13 50 -29 56 -37 169 -85 232 -97 11 -2 34 -6 49 -10 47 -10
203 -12 264 -2 52 7 133 29 173 45 8 3 17 7 20 7 3 1 29 14 58 29 122 62 217
141 296 247 22 30 45 58 51 62 5 4 6 8 1 8 -5 0 -3 8 5 18 26 30 66 124 89
207 26 90 36 302 18 378 -5 23 -12 52 -14 65 -3 13 -16 53 -29 89 -102 270
-337 472 -620 533 -78 17 -260 20 -326 6 -53 -12 -164 -48 -173 -57 -6 -5 -18
-9 -28 -9 -10 0 -18 -4 -18 -10 0 -5 -6 -10 -13 -10 -11 0 -101 -57 -135 -84
-73 -62 -192 -199 -192 -222 0 -7 -4 -14 -8 -16 -24 -10 -98 -206 -107 -285
-3 -26 -8 -60 -11 -75 -2 -16 0 -28 6 -28 5 0 10 5 10 10 0 6 5 10 10 10 12 0
200 -148 200 -157 0 -5 -222 -286 -245 -309 -16 -17 -88 -31 -117 -23 -14 4
-80 48 -145 98 -204 159 -194 149 -181 177 6 13 14 24 17 24 4 0 33 36 66 79
l60 79 27 -20 28 -19 1 38 c2 60 7 113 13 129 3 8 -4 20 -17 27 -12 8 -51 31
-87 52 -68 41 -112 77 -164 134 -17 19 -36 39 -41 45 -52 56 -118 195 -146
307 -20 82 -28 238 -15 299 3 14 8 39 11 55 14 71 84 233 119 271 26 31 36 44
36 49 0 12 134 136 163 151 33 17 28 30 -13 39 -17 4 -30 12 -30 19 0 13 67
213 76 228 7 11 1 12 101 -23z"/>
</g>
</svg>
